# xmcd
#
# Track frame offsets:
#	150
#	12835
#	24016
#	37015
#	49468
#	61534
#	73956
#	85959
#	100319
#	112952
#	126348
#	139578
#	151964
#	165951
#	179625
#	192425
#	204895
#	218283
#	231806
#	244617
#
# Disc length: 3435
#
# Revision: 1
# Processed by: cddbd v1.5.1PL0 Copyright (c) Steve Scherf et al.
# Submitted via: OrangeCD 5.2
# Normalized: r0:DSETVAR1
#
DISCID=060d6914
DTITLE=Various Artist - The Motown Collection 1964-1967 Disc 1
DYEAR=2001
DGENRE=Motown Compilation
TTITLE0=Smokey Robinson and The Miracles - Shop Around
TTITLE1=The Marvelettes - Please Mr. Postman
TTITLE2=The Contours - Do You Love Me
TTITLE3=Martha Reeves and The Vandellas - Heat Wave
TTITLE4=Diana Ross and The Supremes - Come See About Me
TTITLE5=Four Tops - Baby I Need Your Loving
TTITLE6=Martha Reeves and The Vandellas - Dancing In The Street
TTITLE7=Stevie Wonder - Fingertips  Part 2
TTITLE8=Mary Wells - My Guy
TTITLE9=Smokey Robinson and The Miracles - You Really Got A Hold On Me
TTITLE10=The Temptations - My Girl
TTITLE11=Four Tops - I Can't Help Myself (Sugar Pie Honey Bunch)
TTITLE12=Jr. Walker and The All Stars - Shotgun
TTITLE13=Jimmy Ruffin - What Becomes Of The Broken Hearted
TTITLE14=Diana Ross and The Supremes - You Can't Hurry Love
TTITLE15=The Isley Brothers - This Old Heart Of Mine
TTITLE16=Marvin Gaye - How Sweet It Is ( To Be Loved By You )
TTITLE17=Four Tops - Reach Out ( I'll Be There )
TTITLE18=Stevie Wonder - A Place I n The Sun
TTITLE19=Gladys Knight and The Pips - I Heard It Through The Grapevine
EXTD=
EXTT0=
EXTT1=
EXTT2=
EXTT3=
EXTT4=
EXTT5=
EXTT6=
EXTT7=
EXTT8=
EXTT9=
EXTT10=
EXTT11=
EXTT12=
EXTT13=
EXTT14=
EXTT15=
EXTT16=
EXTT17=
EXTT18=
EXTT19=
PLAYORDER=
